<svg xmlns="http://www.w3.org/2000/svg" viewBox="0 0 360 240" role="img"><rect width="360" height="240" fill="#fff"/><rect y="0.0" width="360" height="18.96153846153846" fill="#B22234"/><rect y="36.92307692307692" width="360" height="18.96153846153846" fill="#B22234"/><rect y="73.84615384615384" width="360" height="18.96153846153846" fill="#B22234"/><rect y="110.76923076923077" width="360" height="18.96153846153846" fill="#B22234"/><rect y="147.69230769230768" width="360" height="18.96153846153846" fill="#B22234"/><rect y="184.6153846153846" width="360" height="18.96153846153846" fill="#B22234"/><rect y="221.53846153846155" width="360" height="18.96153846153846" fill="#B22234"/><rect width="150" height="129" fill="#3C3B6E"/><circle cx="12" cy="12" r="3" fill="#fff"/><circle cx="34" cy="12" r="3" fill="#fff"/><circle cx="56" cy="12" r="3" fill="#fff"/><circle cx="78" cy="12" r="3" fill="#fff"/><circle cx="100" cy="12" r="3" fill="#fff"/><circle cx="122" cy="12" r="3" fill="#fff"/><circle cx="12" cy="32" r="3" fill="#fff"/><circle cx="34" cy="32" r="3" fill="#fff"/><circle cx="56" cy="32" r="3" fill="#fff"/><circle cx="78" cy="32" r="3" fill="#fff"/><circle cx="100" cy="32" r="3" fill="#fff"/><circle cx="122" cy="32" r="3" fill="#fff"/><circle cx="12" cy="52" r="3" fill="#fff"/><circle cx="34" cy="52" r="3" fill="#fff"/><circle cx="56" cy="52" r="3" fill="#fff"/><circle cx="78" cy="52" r="3" fill="#fff"/><circle cx="100" cy="52" r="3" fill="#fff"/><circle cx="122" cy="52" r="3" fill="#fff"/><circle cx="12" cy="72" r="3" fill="#fff"/><circle cx="34" cy="72" r="3" fill="#fff"/><circle cx="56" cy="72" r="3" fill="#fff"/><circle cx="78" cy="72" r="3" fill="#fff"/><circle cx="100" cy="72" r="3" fill="#fff"/><circle cx="122" cy="72" r="3" fill="#fff"/><circle cx="12" cy="92" r="3" fill="#fff"/><circle cx="34" cy="92" r="3" fill="#fff"/><circle cx="56" cy="92" r="3" fill="#fff"/><circle cx="78" cy="92" r="3" fill="#fff"/><circle cx="100" cy="92" r="3" fill="#fff"/><circle cx="122" cy="92" r="3" fill="#fff"/><circle cx="12" cy="112" r="3" fill="#fff"/><circle cx="34" cy="112" r="3" fill="#fff"/><circle cx="56" cy="112" r="3" fill="#fff"/><circle cx="78" cy="112" r="3" fill="#fff"/><circle cx="100" cy="112" r="3" fill="#fff"/><circle cx="122" cy="112" r="3" fill="#fff"/></svg>